<svg xmlns="http://www.w3.org/2000/svg" viewBox="0 0 379.31 109.74"><defs><style>.cls-1{fill:#19ab64;}.cls-2{fill:none;stroke:#fff;stroke-miterlimit:10;}</style></defs><title>Ресурс 2</title><g id="Слой_2" data-name="Слой 2"><g id="Слой_1-2" data-name="Слой 1"><polygon class="cls-1" points="0.5 51.9 48.9 1.05 66.67 1.05 66.67 77.02 48.29 77.02 49.21 27.7 0.81 76.71 0.5 51.9"/><polygon class="cls-2" points="0.5 51.9 48.9 1.05 66.67 1.05 66.67 77.02 48.29 77.02 49.21 27.7 0.81 76.71 0.5 51.9"/><polygon class="cls-1" points="71.26 52.21 119.66 0.74 137.43 0.74 137.43 77.33 115.37 77.33 115.37 64.46 92.71 64.46 111.08 46.69 119.05 46.69 119.66 30.15 71.26 77.33 71.26 52.21"/><polygon class="cls-2" points="71.26 52.21 119.66 0.74 137.43 0.74 137.43 77.33 115.37 77.33 115.37 64.46 92.71 64.46 111.08 46.69 119.05 46.69 119.66 30.15 71.26 77.33 71.26 52.21"/><polygon class="cls-1" points="312.65 52.21 361.05 0.74 378.81 0.74 378.81 77.33 356.76 77.33 356.76 64.46 335.31 64.46 352.47 46.69 360.43 46.69 361.05 30.15 312.65 77.33 312.65 52.21"/><polygon class="cls-2" points="312.65 52.21 361.05 0.74 378.81 0.74 378.81 77.33 356.76 77.33 356.76 64.46 335.31 64.46 352.47 46.69 360.43 46.69 361.05 30.15 312.65 77.33 312.65 52.21"/><polygon class="cls-1" points="160.71 0.74 141.72 19.74 141.72 77.33 158.87 77.33 159.49 20.35 179.7 20.35 194.41 0.74 160.71 0.74"/><polygon class="cls-2" points="160.71 0.74 141.72 19.74 141.72 77.33 158.87 77.33 159.49 20.35 179.7 20.35 194.41 0.74 160.71 0.74"/><polygon class="cls-1" points="201.76 0.74 187.05 20.35 203.59 34.44 186.44 51.59 186.44 77.33 259.96 0.74 236.06 0.74 220.14 17.9 201.76 0.74"/><polygon class="cls-2" points="201.76 0.74 187.05 20.35 203.59 34.44 186.44 51.59 186.44 77.33 259.96 0.74 236.06 0.74 220.14 17.9 201.76 0.74"/><polygon class="cls-1" points="267.92 1.36 250.77 19.13 250.77 77.33 267.92 77.33 267.92 50.98 289.37 50.98 289.37 77.33 307.13 77.33 307.13 0.74 289.37 0.74 289.37 32.6 267.92 32.6 267.92 1.36"/><polygon class="cls-2" points="267.92 1.36 250.77 19.13 250.77 77.33 267.92 77.33 267.92 50.98 289.37 50.98 289.37 77.33 307.13 77.33 307.13 0.74 289.37 0.74 289.37 32.6 267.92 32.6 267.92 1.36"/><polygon points="12.33 106.24 18.58 91.6 21.45 91.6 21.45 109.31 19.56 109.31 19.56 93.93 19.5 93.93 12.82 109.31 11.84 109.31 5.1 93.93 5.04 93.93 5.04 109.31 3.14 109.31 3.14 91.6 6.02 91.6 12.33 106.24"/><polygon points="33.89 107.71 43.82 107.71 43.82 109.31 32.05 109.31 32.05 91.6 43.57 91.6 43.57 93.19 33.89 93.19 33.89 99.26 42.9 99.26 42.9 100.85 33.89 100.85 33.89 107.71"/><polygon points="59.13 109.31 57.23 109.31 57.23 93.19 51.05 93.19 51.05 91.6 65.32 91.6 65.32 93.19 59.13 93.19 59.13 109.31"/><path d="M76.41,103h8.15l-4.11-9.38Zm-2.76,6.31H71.57l8-17.71h1.83l8,17.71H87.31l-2-4.66H75.74Z"/><polygon points="97.67 109.31 95.58 109.31 103.61 91.6 105.45 91.6 113.41 109.31 111.33 109.31 104.53 93.87 97.67 109.31"/><polygon points="121.13 109.31 119.05 109.31 127.08 91.6 128.91 91.6 136.88 109.31 134.79 109.31 127.99 93.87 121.13 109.31"/><path d="M161.08,100.48a8,8,0,0,0-.55-2.94A7.23,7.23,0,0,0,159,95.09a7.1,7.1,0,0,0-2.45-1.71,7.74,7.74,0,0,0-3.18-.61,7.57,7.57,0,0,0-3.19.61,7.2,7.2,0,0,0-2.45,1.71,8,8,0,0,0-1.53,2.45,8.16,8.16,0,0,0,0,5.89,7.46,7.46,0,0,0,1.53,2.45,8,8,0,0,0,2.45,1.65,7.76,7.76,0,0,0,3.19.61,7.55,7.55,0,0,0,3.18-.61,7.88,7.88,0,0,0,2.45-1.65,7.32,7.32,0,0,0,1.54-2.45A8.59,8.59,0,0,0,161.08,100.48Zm2-.06a9.46,9.46,0,0,1-.74,3.74,9,9,0,0,1-2,2.94,10.49,10.49,0,0,1-3.06,2,9.86,9.86,0,0,1-3.86.68,11.56,11.56,0,0,1-3.86-.68,9.28,9.28,0,0,1-3.06-2,8.45,8.45,0,0,1-2-2.94,9.24,9.24,0,0,1-.73-3.74,9,9,0,0,1,2.76-6.67,9.31,9.31,0,0,1,3.06-2,9.82,9.82,0,0,1,3.86-.67,11.86,11.86,0,0,1,3.86.67,9.41,9.41,0,0,1,3.06,2,8.81,8.81,0,0,1,2,2.94A9.44,9.44,0,0,1,163.1,100.42Z"/><path d="M189,100.48a7.8,7.8,0,0,0-.55-2.94,7.34,7.34,0,0,0-4-4.16,7.76,7.76,0,0,0-3.19-.61,7.55,7.55,0,0,0-3.18.61,7.1,7.1,0,0,0-2.45,1.71,7.65,7.65,0,0,0-1.53,2.45,8.16,8.16,0,0,0,0,5.89,7.15,7.15,0,0,0,1.53,2.45,7.88,7.88,0,0,0,2.45,1.65,7.74,7.74,0,0,0,3.18.61,7.57,7.57,0,0,0,3.19-.61,7.88,7.88,0,0,0,2.45-1.65,7.15,7.15,0,0,0,1.53-2.45A8.36,8.36,0,0,0,189,100.48Zm2-.06a9.45,9.45,0,0,1-.73,3.74,9,9,0,0,1-2,2.94,10.41,10.41,0,0,1-3.07,2,9.83,9.83,0,0,1-3.86.68,11.28,11.28,0,0,1-3.85-.68,9.33,9.33,0,0,1-3.07-2,8.43,8.43,0,0,1-2-2.94,9.25,9.25,0,0,1-.74-3.74,9.14,9.14,0,0,1,2.76-6.67,10.43,10.43,0,0,1,3.07-2,9.81,9.81,0,0,1,3.85-.67,11.54,11.54,0,0,1,3.86.67,9.35,9.35,0,0,1,3.07,2,8.25,8.25,0,0,1,2,2.94A9.44,9.44,0,0,1,191,100.42Z"/><path d="M206.11,107.65a5.53,5.53,0,0,0,3.43-.92,2.93,2.93,0,0,0,1.16-2.51,3,3,0,0,0-1.22-2.51,5.53,5.53,0,0,0-3.37-.86h-3.62v6.74h3.62Zm-5.52,1.66V91.6h10.54v1.66h-8.64v6h3.8a8.49,8.49,0,0,1,2.57.37,5.72,5.72,0,0,1,2,1,4.41,4.41,0,0,1,1.72,3.67,4.78,4.78,0,0,1-.43,2.15,4.6,4.6,0,0,1-1.29,1.59,6.32,6.32,0,0,1-2,1,8.22,8.22,0,0,1-2.57.37h-5.7Z"/><path d="M224.12,99.57h3.18a5.71,5.71,0,0,0,3.37-.8,2.7,2.7,0,0,0,1.17-2.39A2.57,2.57,0,0,0,230.67,94a6.28,6.28,0,0,0-3.3-.73h-3.19v6.31Zm-1.9-8h5.21a11,11,0,0,1,2.57.31,5.6,5.6,0,0,1,2,.86,3.69,3.69,0,0,1,1.29,1.47,5.25,5.25,0,0,1,0,4.16A3.83,3.83,0,0,1,232,99.87a6.14,6.14,0,0,1-2,.86,11.6,11.6,0,0,1-2.57.31h-3.31v8.21h-1.9Z"/><path d="M245.68,103h8.15l-4.1-9.38Zm-2.75,6.31h-2.09l8-17.71h1.84l8,17.71h-2.08l-2-4.66H245Z"/><path d="M272.58,107.65a5.53,5.53,0,0,0,3.43-.92,2.91,2.91,0,0,0,1.16-2.51,3,3,0,0,0-1.22-2.51,6,6,0,0,0-3.37-.86H269v6.74h3.62Zm-5.51,1.66V91.6H277.6v1.66H269v6h3.8a8.61,8.61,0,0,1,2.58.37,5.81,5.81,0,0,1,2,1,4.57,4.57,0,0,1,1.28,1.59,4.65,4.65,0,0,1,.43,2.08,4.78,4.78,0,0,1-.43,2.15A4.57,4.57,0,0,1,277.3,108a6.43,6.43,0,0,1-2,1,8.33,8.33,0,0,1-2.58.37h-5.69Z"/><path d="M305.05,100.48a7.8,7.8,0,0,0-.55-2.94A7.36,7.36,0,0,0,303,95.09a7.2,7.2,0,0,0-2.45-1.71,7.79,7.79,0,0,0-3.19-.61,7.6,7.6,0,0,0-3.19.61,7.2,7.2,0,0,0-2.45,1.71,8,8,0,0,0-1.53,2.45,8.16,8.16,0,0,0,0,5.89,7.46,7.46,0,0,0,1.53,2.45,8,8,0,0,0,2.45,1.65,7.79,7.79,0,0,0,3.19.61,7.6,7.6,0,0,0,3.19-.61,8,8,0,0,0,2.45-1.65,7.46,7.46,0,0,0,1.53-2.45A8.36,8.36,0,0,0,305.05,100.48Zm2-.06a9.28,9.28,0,0,1-.74,3.74,9,9,0,0,1-2,2.94,10.36,10.36,0,0,1-3.06,2,9.83,9.83,0,0,1-3.86.68,11.61,11.61,0,0,1-3.86-.68,9.39,9.39,0,0,1-3.06-2,8.43,8.43,0,0,1-2-2.94,9.25,9.25,0,0,1-.74-3.74,9.14,9.14,0,0,1,2.76-6.67,10.51,10.51,0,0,1,3.06-2,9.82,9.82,0,0,1,3.86-.67,11.86,11.86,0,0,1,3.86.67,9.31,9.31,0,0,1,3.06,2,8.25,8.25,0,0,1,2,2.94A9.27,9.27,0,0,1,307,100.42Z"/><polygon points="322.57 109.31 320.67 109.31 320.67 93.19 314.48 93.19 314.48 91.6 328.76 91.6 328.76 93.19 322.57 93.19 322.57 109.31"/><path d="M337.21,109.31V91.6h1.9v7.54a10.62,10.62,0,0,1,1.41.06c.43.06.86.06,1.35.12l7.05-7.72H351l-7.11,8.15a9.39,9.39,0,0,1,5.09,3.37,13.17,13.17,0,0,1,2.39,6.19h-2.09a18.12,18.12,0,0,0-1.16-3.92,8.14,8.14,0,0,0-2-2.7,7.49,7.49,0,0,0-2.94-1.53,15.41,15.41,0,0,0-4-.43v8.52h-2Z"/><path d="M363.56,103h8.15l-4.11-9.38Zm-2.7,6.31h-2.08l8-17.71h1.84l8,17.71h-2.09l-2-4.66h-9.62Z"/></g></g></svg>